<svg xmlns="http://www.w3.org/2000/svg" width="148.137" height="138.899" viewBox="0 0 148.137 138.899">
  <defs>
    <style>
      .cls-1 {
        fill: #2c87ce;
      }
    </style>
  </defs>
  <g id="clients" transform="translate(0.002 0.012)">
    <path id="Path_981" data-name="Path 981" class="cls-1" d="M148.136,179.34c-.848,1.586-2.169,2.048-3.942,2.048q-70.151-.05-140.308-.028c-2.978,0-3.9-.908-3.887-3.87.022-3.749-.165-7.493.837-11.2,2.692-9.926,11.913-18.057,22.1-19.346a4.319,4.319,0,0,0,1.261-.358,17.882,17.882,0,0,1-11.545-7.4,17.04,17.04,0,0,1-2.769-13.477,17.468,17.468,0,0,1,18.591-13.758c8.159.611,15.272,7.773,15.756,15.866A17.644,17.644,0,0,1,29.59,146.578,29.975,29.975,0,0,1,46.4,154.549a35.732,35.732,0,0,1,24.57-13.73,23.742,23.742,0,0,1-15.69-9.629,22.6,22.6,0,0,1-3.986-17.81c2.042-11.5,12.646-19.533,24.669-18.79,10.878.672,20.4,10.168,21.206,21.118a23.542,23.542,0,0,1-20.039,25.1,35.549,35.549,0,0,1,24.576,13.73,29.627,29.627,0,0,1,16.857-7.928c-10.433-2.186-15.569-10.978-14.606-19.269,1.074-9.271,8.693-15.641,18.189-15.42,8.247.187,15.646,7.256,16.4,15.663.82,9.166-5.142,16.874-14.661,19.076.732.132,1.464.259,2.191.4,11.269,2.092,20.381,11.324,21.8,22.225a1.6,1.6,0,0,0,.253.49v9.546ZM102.9,175.513a28.809,28.809,0,1,0-57.618,0ZM91.42,117.774a17.358,17.358,0,1,0-17.5,17.292,17.489,17.489,0,0,0,17.5-17.292Zm-52.289,57.74c.385-2.709.551-5.274,1.151-7.735a60.4,60.4,0,0,1,2.516-7.184,1.361,1.361,0,0,0-.33-1.745c-10.812-10.592-28.71-7.6-35,6.171a20.8,20.8,0,0,0-1.613,10.493H39.131Zm103.389.017a51.16,51.16,0,0,0-.633-6.6,20.035,20.035,0,0,0-14.7-15.552c-8.131-2.373-15.382-.281-21.57,5.511-.639.6-.49,1.063-.259,1.756,1.018,3.088,2.064,6.177,2.874,9.32a42.418,42.418,0,0,1,.694,5.555H142.52ZM26.865,117.719a11.561,11.561,0,1,0,.066,23.122,11.561,11.561,0,1,0-.066-23.122Zm105.916,11.528a11.561,11.561,0,1,0-11.6,11.594A11.753,11.753,0,0,0,132.781,129.247Z" transform="translate(0 -42.5)"/>
    <path id="Path_982" data-name="Path 982" class="cls-1" d="M127.672,44.422a15.541,15.541,0,0,1-1.718-.694c-3.16-1.635-6.32-3.281-9.453-4.977a1.968,1.968,0,0,0-2.12.011c-3.088,1.674-6.221,3.265-9.315,4.927-1.261.677-2.51,1.1-3.788.182-1.255-.9-1.376-2.153-1.1-3.606.661-3.5,1.178-7.019,1.811-10.521a1.974,1.974,0,0,0-.661-2.015c-2.587-2.455-5.1-4.993-7.674-7.454-1.068-1.018-1.674-2.153-1.151-3.606a3.144,3.144,0,0,1,2.94-1.954c3.435-.446,6.854-1,10.289-1.459a2.588,2.588,0,0,0,2.235-1.663c1.47-3.188,3.072-6.315,4.591-9.475a3.1,3.1,0,0,1,2.962-2.131A3.138,3.138,0,0,1,118.34,2.12c1.536,3.16,3.144,6.282,4.6,9.48a2.552,2.552,0,0,0,2.23,1.657c3.479.468,6.953,1,10.433,1.475a3.12,3.12,0,0,1,2.846,2.081,2.929,2.929,0,0,1-.985,3.248c-2.576,2.532-5.147,5.081-7.785,7.548a2.347,2.347,0,0,0-.743,2.422c.655,3.545,1.272,7.1,1.877,10.653a3.055,3.055,0,0,1-3.138,3.727ZM101.835,19.687c1.762,1.861,3.457,3.683,5.2,5.461a3.5,3.5,0,0,1,1.09,3.386c-.49,2.439-.842,4.911-1.294,7.6a39.771,39.771,0,0,0,4.6-2.433c2.7-1.9,5.23-1.965,7.955-.039a41.88,41.88,0,0,0,4.674,2.488c-.4-2.395-.65-4.492-1.123-6.535a4.79,4.79,0,0,1,1.575-5.164c1.63-1.453,3-3.193,4.437-4.757-1.877-.286-3.909-.743-5.962-.864a4.836,4.836,0,0,1-4.674-3.364c-.782-1.965-1.85-3.821-2.885-5.918-1.162,2.373-2.263,4.454-3.21,6.606a4.015,4.015,0,0,1-3.512,2.576c-2.29.27-4.575.628-6.882.952Z" transform="translate(-41.493 0)"/>
    <path id="Path_983" data-name="Path 983" class="cls-1" d="M48.182,60.854a13.8,13.8,0,0,1-1.431,2.208c-1.63,1.707-3.391,3.287-5.021,5a2.16,2.16,0,0,0-.49,1.586c.3,2.241.727,4.459,1.107,6.689.231,1.338.209,2.615-1,3.545-1.255.974-2.5.677-3.771-.017-2.026-1.1-4.063-2.2-6.138-3.21a1.985,1.985,0,0,0-1.547,0c-2.12,1.035-4.19,2.158-6.271,3.27a2.995,2.995,0,0,1-4.652-3.287c.4-2.075.622-4.19,1.085-6.249a2.638,2.638,0,0,0-.93-2.9c-1.552-1.365-2.984-2.874-4.481-4.305a3.022,3.022,0,0,1,1.784-5.494c2.29-.3,4.575-.622,6.843-1.063a2.391,2.391,0,0,0,1.459-1.079c1.1-2.026,2.07-4.123,3.083-6.193a3.008,3.008,0,0,1,5.714.028c.958,1.993,2,3.947,2.912,5.962a2.161,2.161,0,0,0,1.91,1.409c2.29.281,4.575.628,6.854.974a3.318,3.318,0,0,1,2.978,3.127Zm-17.5-4.074C29.519,60.909,27,62.951,22.566,62.7c3.683,2.411,4.635,5.511,2.9,9.42,1.9-.776,3.523-1.938,5.158-1.954,1.608-.017,3.226,1.123,4.79,1.734-.083-1.74-.628-3.645-.11-5.186.512-1.519,2.109-2.676,3.463-4.256-4.421.462-6.942-1.5-8.082-5.681Z" transform="translate(-6.001 -21.265)"/>
    <path id="Path_984" data-name="Path 984" class="cls-1" d="M221.14,77.112c0,2.709-2.131,4.057-4.322,2.995-2.208-1.068-4.333-2.307-6.54-3.369a2.343,2.343,0,0,0-1.789-.017c-2.125,1.013-4.2,2.136-6.276,3.248a2.965,2.965,0,0,1-3.4,0,3.022,3.022,0,0,1-1.151-3.32c.418-2.169.721-4.366,1.14-6.535a2.3,2.3,0,0,0-.765-2.417c-1.646-1.481-3.193-3.072-4.784-4.619a3.031,3.031,0,0,1-1.029-3.369,3.1,3.1,0,0,1,2.879-2.031c2.2-.281,4.377-.655,6.573-.936a2.15,2.15,0,0,0,1.916-1.42c.892-2.02,1.938-3.975,2.912-5.962a3.008,3.008,0,0,1,5.714-.006c1.007,2.075,2,4.162,3.1,6.188a2.374,2.374,0,0,0,1.437,1.074c2.263.44,4.553.771,6.843,1.063a3.018,3.018,0,0,1,1.789,5.489c-1.679,1.591-3.347,3.193-4.944,4.867a2.178,2.178,0,0,0-.512,1.58c.358,2.621.831,5.219,1.211,7.493Zm-16.819-4.834c3.342-2.747,6.579-2.786,10.053-.116-1.685-4.145-.391-7.091,3.094-9.475-4.36.22-6.981-1.663-8.1-5.907-1.145,4.173-3.711,6.149-8.115,5.929,3.722,2.4,4.608,5.522,3.061,9.568Z" transform="translate(-86.321 -21.261)"/>
    <path id="Path_985" data-name="Path 985" class="cls-1" d="M162.357,216.649a2.781,2.781,0,0,1-1.839,2.89,2.654,2.654,0,0,1-3.138-.76,3.922,3.922,0,0,1-.589-.82,18.965,18.965,0,0,0-6.023-6.876,2.879,2.879,0,1,1,3.061-4.878,22.4,22.4,0,0,1,8.258,9.42,4.367,4.367,0,0,1,.259,1.024Z" transform="translate(-67.149 -92.472)"/>
    <path id="Path_986" data-name="Path 986" class="cls-1" d="M132.121,205.473a2.877,2.877,0,1,1,2.94-2.742A2.891,2.891,0,0,1,132.121,205.473Z" transform="translate(-58.12 -89.773)"/>
  </g>
</svg>
