<svg xmlns="http://www.w3.org/2000/svg" width="113.989" height="138.861" viewBox="0 0 113.989 138.861">
  <defs>
    <style>
      .cls-1 {
        fill: #2c87ce;
      }
    </style>
  </defs>
  <g id="countries" transform="translate(-0.002 0.004)">
    <path id="Path_987" data-name="Path 987" class="cls-1" d="M23.677,138.854a3.393,3.393,0,0,1-1.916-3.549c.1-1.984.011-3.976.029-5.964a8.067,8.067,0,0,1,8.083-8.1c5.783-.022,11.57-.007,17.353-.007H48.8v-7.2c-2.962-.406-5.964-.688-8.915-1.242a61.237,61.237,0,0,1-32.2-16.962A8.1,8.1,0,0,1,9.431,82.725c.228-.13.46-.264.558-.319-1.742-3.111-3.7-6.058-5.124-9.252Q-5.815,49.112,6.9,25.98a4.689,4.689,0,0,1,1.5-1.677,2.426,2.426,0,0,1,3.1.449,2.793,2.793,0,0,1,.449,3.364c-1.318,2.81-2.785,5.569-3.882,8.466A37.864,37.864,0,0,0,5.657,49.044c4.3.391,8.517.844,12.74,1.141,4.418.308,7.5,2.278,8.923,6.594.637,1.923,1.354,3.82,2.064,5.722.6,1.615,1.054,1.861,2.738,1.572,1.289-.221,2.567-.482,3.86-.692a3.487,3.487,0,0,0,2.933-2.455c.63-1.735,1.354-3.437,2.05-5.146a7.592,7.592,0,0,1,7.043-5.044c2.93-.188,5.856-.46,8.789-.521a6.841,6.841,0,0,1,7.047,8.427c-.735,3.712-1.637,7.387-2.466,11.081a8.149,8.149,0,0,1-5.624,6.221c-1.445.511-2.857,1.108-4.309,1.59-.9.3-1.094.7-.692,1.593,1.76,3.907,1.807,3.9,6.091,3.455,4.356-.453,8.724-.789,13.087-1.152a10.41,10.41,0,0,1,8.611,3.125c.8.8,1.63,1.55,2.433,2.31,12.613-7.92,20.7-33.406,14.959-47.279-.721.348-1.448.666-2.147,1.039a7.732,7.732,0,0,1-9.3-1c-2.6-2.173-5.12-4.436-7.677-6.663-.648-.565-1.275-1.152-1.941-1.695-1.282-1.047-2.325-1-3.4.261-1.463,1.72-3.031,3.317-5.367,3.625a23.448,23.448,0,0,1-4.729.065c-5.222-.387-10.447-.782-15.655-1.333A11.168,11.168,0,0,1,37.466,29a6.484,6.484,0,0,1,.865-8.843c1.456-1.416,2.933-2.828,4.508-4.106a11.227,11.227,0,0,0,4.041-6.533c.268-1.224.655-2.423,1.072-3.94-1.974.3-3.748.514-5.493.855a47.613,47.613,0,0,0-13.873,5.189,3.883,3.883,0,0,1-2.9.348,3.477,3.477,0,0,1-1.633-2.223,2.325,2.325,0,0,1,1.5-2.625c3.429-1.586,6.779-3.466,10.364-4.577C51.966-2.425,67.016-.093,80.979,9.232c.409.275.811.561,1.322.916.174-.275.337-.514.482-.764A8.115,8.115,0,0,1,95.9,7.664a61.553,61.553,0,0,1,16.712,30.867A62.4,62.4,0,0,1,69.645,111.3a31.051,31.051,0,0,1-3.389.916c-.833.148-1.126.456-1.112,1.315.051,2.52.018,5.041.018,7.717h1.557q8.609,0,17.219,0a8.051,8.051,0,0,1,8.332,8.249c.011,1.941-.072,3.889.025,5.827a3.332,3.332,0,0,1-1.919,3.538h-66.7ZM76.688,90.322A16.017,16.017,0,0,0,74.11,87.99a7.338,7.338,0,0,0-3.371-1.072c-2.339,0-4.671.391-7.014.565-3.466.257-6.927.54-10.4.67A6.175,6.175,0,0,1,47.7,84.981a33.746,33.746,0,0,1-2.013-3.824,6.1,6.1,0,0,1,3.505-8.619c1.637-.634,3.288-1.235,4.943-1.829a2.723,2.723,0,0,0,1.894-2.1c.782-3.516,1.644-7.014,2.368-10.541.395-1.927-.253-2.553-2.263-2.433-2.567.152-5.135.351-7.706.507a2.586,2.586,0,0,0-2.462,1.774q-1.081,2.77-2.205,5.522a8.178,8.178,0,0,1-6.3,5.182c-1.456.293-2.915.579-4.382.833-4.4.76-7.293-.916-8.854-5.142-.688-1.858-1.434-3.7-2-5.595a3.946,3.946,0,0,0-3.81-3.064c-2.249-.185-4.5-.391-6.746-.579-1.955-.163-3.911-.315-6.134-.489,1.9,17.288,10.013,30.331,25.461,38.066,15.43,7.724,30.733,6.424,45.689-2.325Zm31.805-37.473a56.492,56.492,0,0,0-9.727-33.065c-2.071-2.94-4.519-5.62-6.873-8.351a2.533,2.533,0,0,0-3.328-.485A2.575,2.575,0,0,0,87.436,14a7.02,7.02,0,0,0,1.405,1.948c12.783,13.992,17.168,30.31,12.548,48.626A51.467,51.467,0,0,1,16.032,88.826a6.516,6.516,0,0,0-2.064-1.456,2.523,2.523,0,0,0-3.016,1.209c-.677,1.173-.416,2.433.855,3.614,16,14.862,34.659,19.692,55.68,13.916,23.868-6.558,40.152-28.046,41.007-53.265Zm-14.116-18.6c-.894-1.8-1.64-3.534-2.589-5.149Q79.257,7.8,54.624,5.6c-.739-.065-1.032.127-1.206.855-.387,1.619-.927,3.2-1.325,4.816a15.892,15.892,0,0,1-5.305,8.593c-1.485,1.246-2.89,2.589-4.317,3.907-1.1,1.014-1.246,1.659-.094,2.571a8.688,8.688,0,0,0,3.972,2.064c5.689.655,11.414.985,17.121,1.481a3.946,3.946,0,0,0,3.7-1.72c3-3.77,7.5-4.186,11.2-1.119,1.007.833,1.966,1.731,2.951,2.589,2.176,1.9,4.306,3.86,6.565,5.653a3.479,3.479,0,0,0,2.546.746,21.322,21.322,0,0,0,3.94-1.789ZM86.86,133.382v-2.977c0-2.911-.865-3.762-3.824-3.762H31.02a9.722,9.722,0,0,0-1.217.025,2.567,2.567,0,0,0-2.491,2.278,41.032,41.032,0,0,0-.036,4.432H86.864ZM59.632,121.2V113.44c-1.785.17-3.513.333-5.207.5V121.2h5.207Z" transform="translate(0 0)"/>
    <path id="Path_988" data-name="Path 988" class="cls-1" d="M39.824,42.45a2.6,2.6,0,0,1,2.683-2.73,2.691,2.691,0,0,1,2.738,2.72,2.812,2.812,0,0,1-2.662,2.705A2.7,2.7,0,0,1,39.82,42.45Z" transform="translate(-25.399 -25.339)"/>
  </g>
</svg>
