<svg id="customized_reports" data-name="customized reports" xmlns="http://www.w3.org/2000/svg" width="138.768" height="138.861" viewBox="0 0 138.768 138.861">
  <defs>
    <style>
      .cls-1 {
        fill: #2c87ce;
      }
    </style>
  </defs>
  <path id="Path_989" data-name="Path 989" class="cls-1" d="M0,120.421V3.564C1.123.9,3.115-.007,6,0,31.943.076,57.885.043,83.827.043c3.39,0,5.27,1.865,5.314,5.267.011.75,0,1.5,0,2.22q6.828.8,7.8,7.429c.866,0,1.757-.011,2.651,0a4.665,4.665,0,0,1,4.807,4.778c.022,2.981,0,5.966,0,8.947v2.043a2.715,2.715,0,0,0,.446.141c.362.014.721.022,1.083.025A30.929,30.929,0,0,1,122.272,35.5c12.134,7.635,17.661,18.672,16.292,32.99a31.809,31.809,0,0,1-7.737,17.7c-1,1.184-2.043,1.337-3.053.522-1.069-.866-.992-1.84-.109-3.2,1.7-2.6,3.271-5.267,4.861-7.929a8.919,8.919,0,0,0,.58-1.6,4.839,4.839,0,0,0-.511-.2c-8.624-2.278-17.249-4.571-25.887-6.8a1.982,1.982,0,0,0-1.561.525q-9.2,9.106-18.335,18.284c-.275.275-.522.576-.8.887.264.228.456.42.674.58,10.214,7.639,21.055,8.747,32.534,3.108,1.5-.735,2.637-.511,3.224.688.572,1.17.138,2.184-1.282,2.945a30.4,30.4,0,0,1-9.66,3.365c-2.3.359-4.636.532-7.1.808v1.405c0,5.919-.029,11.841.022,17.759a3.663,3.663,0,0,1-1.2,2.858c-4.031,3.959-8.012,7.965-12.022,11.942-2.275,2.253-4.571,4.481-6.86,6.719H18.712c-3.137-1.387-3.778-4.05-3.408-7.154-2.325-.261-4.589.29-6.331-1.532-1.71-1.786-1.235-4.021-1.405-6.292C4.3,124.26,1.38,123.92,0,120.425ZM100.344,31.154V20.8c0-1.735-.033-1.771-1.724-1.771q-38.766,0-77.535-.029c-1.351,0-1.659.46-1.655,1.721q.043,56.174,0,112.347c0,1.38.4,1.753,1.768,1.753q29.415-.06,58.83-.029h1.514v-1.688c0-4.021-.022-8.041.007-12.062.025-3.292,1.956-5.172,5.27-5.183,4.021-.011,8.041,0,12.065,0h1.427V97.772C82.338,95.262,71.2,78.752,71.7,63.608a33.747,33.747,0,0,1,28.651-32.454Zm-85.08,96.153v-1.869q0-52.327-.036-104.654c-.007-3.408,1.84-5.89,5.893-5.871,23.276.105,46.551.051,69.831.051h1.558c.5-3.05.388-3.184-2.441-3.184H39.358c-.543,0-1.087,0-1.626-.043a1.742,1.742,0,0,1-1.706-1.764c-.141-1.514.739-2.307,2.59-2.307q22.3-.005,44.61,0h1.655c.033-.446.069-.75.076-1.054a2.16,2.16,0,0,0-2.449-2.5H6.168a1.844,1.844,0,0,0-2.1,2.068q0,55.38.007,110.757c0,3.115-.6,3,3.126,2.919.12,0,.235-.1.427-.181V13.818c0-.5-.018-1,.007-1.492a4.668,4.668,0,0,1,4.455-4.615c4.836-.105,9.671-.065,14.507-.018A1.919,1.919,0,0,1,28.5,10.1c-.2,1.376-1.155,1.688-2.358,1.684-4.115-.007-8.226,0-12.341,0a1.849,1.849,0,0,0-2.061,2.123q0,55.31.011,110.62c0,3.253-.656,3.028,3.191,2.938a1.768,1.768,0,0,0,.322-.152ZM115.39,36.888c-10.747-4.379-26.217-1.38-34.642,11.21-8,11.957-5.466,27.365,2.365,35.511.322-.3.652-.6.967-.909q9.3-9.291,18.578-18.6a7.314,7.314,0,0,0,1.434-2.086c3.01-6.6,5.976-13.221,8.954-19.835.79-1.757,1.561-3.524,2.344-5.288Zm-7.237,26.166c4.491,1.184,8.795,2.318,13.1,3.459s8.577,2.278,12.869,3.419c2.818-13.239-4.857-26.713-14.981-31.3C115.5,46.718,111.866,54.8,108.153,63.054ZM85.667,130.943c3.626-3.542,7.4-7.226,11.163-10.9-3.336,0-6.766-.022-10.193.036-.326.007-.92.514-.927.8C85.645,124.384,85.667,127.893,85.667,130.943Z" transform="translate(0 0)"/>
  <path id="Path_990" data-name="Path 990" class="cls-1" d="M123.872,268.793a12.275,12.275,0,0,1,1.775.2,1.892,1.892,0,0,1,1.532,2.1,1.834,1.834,0,0,1-1.641,1.855,8.418,8.418,0,0,1-1.481.1q-17.544.005-35.091,0c-.315,0-.634.011-.949-.018-1.4-.127-2.195-.9-2.177-2.1.018-1.17.862-1.941,2.242-2.046.315-.025.63-.029,1.119-.054V267.37c0-4.2-.007-8.4,0-12.6,0-1.84.677-2.521,2.528-2.535,2.474-.018,4.948,0,7.545,0,.033-.616.076-1.1.08-1.576.007-3.387-.011-6.773.011-10.16.014-2.039.659-2.68,2.688-2.691q4.472-.027,8.943,0c2.018.014,2.622.652,2.633,2.709s0,4.14,0,6.353c.514.04.942.1,1.369.105,2.032.011,4.064-.007,6.1.007,2.072.014,2.775.717,2.778,2.764q.011,8.737,0,17.473v1.565Zm-20.233-26.775v26.764h5.832V242.019ZM119.656,268.8V251.244h-5.919V268.8Zm-26.3-12.417V268.8H99.22V256.384Z" transform="translate(-54.747 -151.661)"/>
  <path id="Path_991" data-name="Path 991" class="cls-1" d="M107.464,96.676q-9.492,0-18.98-.007a6.239,6.239,0,0,1-1.6-.156,1.838,1.838,0,0,1-1.387-2.061A1.8,1.8,0,0,1,87,92.623a7.239,7.239,0,0,1,1.344-.112q19.049-.011,38.094,0a7.617,7.617,0,0,1,1.347.094,1.8,1.8,0,0,1,1.561,1.912,1.836,1.836,0,0,1-1.434,2.025,5.884,5.884,0,0,1-1.474.13q-9.492.011-18.98,0Z" transform="translate(-54.523 -58.999)"/>
  <path id="Path_992" data-name="Path 992" class="cls-1" d="M102.81,137.845c-4.926,0-9.852-.007-14.778,0-1.123,0-2.072-.232-2.478-1.438a1.957,1.957,0,0,1,1.423-2.612,7.5,7.5,0,0,1,1.615-.12q14.164-.011,28.332,0c2.311,0,3.144.536,3.177,2.028.033,1.539-.866,2.141-3.195,2.141h-14.1Z" transform="translate(-54.491 -85.255)"/>
  <path id="Path_993" data-name="Path 993" class="cls-1" d="M100.643,179.094c-4.2,0-8.4-.007-12.6,0-1.123,0-2.072-.243-2.47-1.445a1.976,1.976,0,0,1,1.568-2.637,4.636,4.636,0,0,1,.808-.058q12.676,0,25.348-.007c1.192,0,2.173.283,2.456,1.608.312,1.467-.652,2.521-2.362,2.532-4.249.022-8.494.007-12.743.007Z" transform="translate(-54.501 -111.581)"/>
</svg>
